<?xml version="1.0" encoding="UTF-8" standalone="no"?><svg xmlns="http://www.w3.org/2000/svg" xmlns:xlink="http://www.w3.org/1999/xlink" contentStyleType="text/css" height="900px" preserveAspectRatio="none" style="width:1102px;height:900px;background:#FFFFFF;" version="1.1" viewBox="0 0 1102 900" width="1102px" zoomAndPan="magnify"><defs/><g><!--MD5=[bd5c450c51c35f1826320172b32ecdb2]
class Ressource--><g id="elem_Ressource"><rect codeLine="2" fill="#F1F1F1" height="145.7813" id="Ressource" rx="2.5" ry="2.5" style="stroke:#181818;stroke-width:0.5;" width="176" x="371.3607" y="7"/><ellipse cx="418.1107" cy="23" fill="#A9DCDF" rx="11" ry="11" style="stroke:#181818;stroke-width:1.0;"/><path d="M420.1888,24.8125 L420.5794,25.7969 L420.1888,25.7969 C419.7357,25.7969 419.6263,25.8125 419.4701,25.9219 C419.2201,26.0781 419.0638,26.3594 419.0638,26.6563 C419.0638,26.9219 419.2044,27.1719 419.4232,27.3281 C419.5638,27.4531 419.7669,27.5 420.1888,27.5 L422.5482,27.5 C422.9076,27.5 423.1263,27.4688 423.2669,27.375 C423.5169,27.2344 423.6732,26.9375 423.6732,26.6563 C423.6732,26.375 423.5326,26.125 423.3138,25.9688 C423.1419,25.8281 422.9857,25.7969 422.5169,25.7969 L419.1263,17.5938 L415.4544,17.5938 C415.0013,17.5938 414.8763,17.6094 414.7201,17.7031 C414.4701,17.875 414.3138,18.1563 414.3138,18.4375 C414.3138,18.7188 414.4544,18.9688 414.6732,19.1406 C414.8451,19.25 415.0169,19.2813 415.4544,19.2813 L416.5326,19.2813 L413.8919,25.7969 C413.4701,25.7969 413.3138,25.8125 413.1576,25.9219 C412.9076,26.0781 412.7513,26.3594 412.7513,26.6563 C412.7513,27.2188 413.1263,27.5 413.8763,27.5 L416.1419,27.5 C416.5013,27.5 416.7201,27.4688 416.8451,27.375 C417.1107,27.2344 417.2513,26.9375 417.2513,26.6563 C417.2513,26.375 417.1263,26.125 416.9076,25.9531 C416.7357,25.8281 416.5951,25.7969 416.1419,25.7969 L415.7513,25.7969 L416.1419,24.8125 L420.1888,24.8125 Z M419.4857,23.1094 L416.8138,23.1094 L418.1576,19.8438 L419.4857,23.1094 Z " fill="#000000"/><text fill="#000000" font-family="sans-serif" font-size="14" font-style="italic" lengthAdjust="spacing" textLength="74" x="438.6107" y="27.8467">Ressource</text><line style="stroke:#181818;stroke-width:0.5;" x1="372.3607" x2="546.3607" y1="39" y2="39"/><text fill="#000000" font-family="sans-serif" font-size="14" lengthAdjust="spacing" textLength="116" x="377.3607" y="55.9951">code : int {key}</text><text fill="#000000" font-family="sans-serif" font-size="14" lengthAdjust="spacing" textLength="88" x="377.3607" y="72.292">titre : string</text><text fill="#000000" font-family="sans-serif" font-size="14" lengthAdjust="spacing" textLength="163" x="377.3607" y="88.5889">date_apparition : Date</text><text fill="#000000" font-family="sans-serif" font-size="14" lengthAdjust="spacing" textLength="164" x="377.3607" y="104.8857">code_classification :int</text><text fill="#000000" font-family="sans-serif" font-size="14" lengthAdjust="spacing" textLength="103" x="377.3607" y="121.1826">editeur: string</text><text fill="#000000" font-family="sans-serif" font-size="14" lengthAdjust="spacing" textLength="93" x="377.3607" y="137.4795">genre: string</text><line style="stroke:#181818;stroke-width:0.5;" x1="372.3607" x2="546.3607" y1="144.7813" y2="144.7813"/></g><polygon fill="none" points="434.5757,152.7812,434.7645,173.97,421.5098,169.463" style="stroke:#181818;stroke-width:1.0;"/><line style="stroke:#181818;stroke-width:1.0;" x1="428.1371" x2="427.3607" y1="171.7165" y2="174"/><line style="stroke:#181818;stroke-width:1.0;" x1="543.504" x2="577.1307" y1="152.7812" y2="181.911"/><!--MD5=[e6c689e0fb2094b6e7ddc8286563ae4c]
class Livre--><g id="elem_Livre"><rect codeLine="11" fill="#F1F1F1" height="96.8906" id="Livre" rx="2.5" ry="2.5" style="stroke:#181818;stroke-width:0.5;" width="148" x="467.3607" y="246"/><ellipse cx="519.6107" cy="262" fill="#ADD1B2" rx="11" ry="11" style="stroke:#181818;stroke-width:1.0;"/><path d="M521.9544,257.6719 C521.0169,257.2344 520.4232,257.0938 519.5482,257.0938 C516.9232,257.0938 514.9232,259.1719 514.9232,261.8906 L514.9232,263.0156 C514.9232,265.5938 517.0326,267.4844 519.9232,267.4844 C521.1419,267.4844 522.2982,267.1875 523.0482,266.6406 C523.6263,266.2344 523.9544,265.7813 523.9544,265.3906 C523.9544,264.9375 523.5638,264.5469 523.0951,264.5469 C522.8763,264.5469 522.6732,264.625 522.4857,264.8125 C522.0326,265.2969 522.0326,265.2969 521.8451,265.3906 C521.4232,265.6563 520.7357,265.7813 519.9701,265.7813 C517.9232,265.7813 516.6263,264.6875 516.6263,262.9844 L516.6263,261.8906 C516.6263,260.1094 517.8763,258.7969 519.6107,258.7969 C520.1888,258.7969 520.7982,258.9531 521.2669,259.2031 C521.7513,259.4844 521.9232,259.7031 522.0169,260.1094 C522.0794,260.5156 522.1107,260.6406 522.2513,260.7656 C522.3919,260.9063 522.6263,261.0156 522.8451,261.0156 C523.1107,261.0156 523.3763,260.875 523.5482,260.6563 C523.6576,260.5 523.6888,260.3125 523.6888,259.8906 L523.6888,258.4688 C523.6888,258.0313 523.6732,257.9063 523.5794,257.75 C523.4232,257.4844 523.1419,257.3438 522.8451,257.3438 C522.5482,257.3438 522.3451,257.4375 522.1263,257.75 L521.9544,257.6719 Z " fill="#000000"/><text fill="#000000" font-family="sans-serif" font-size="14" lengthAdjust="spacing" textLength="35" x="540.1107" y="266.8467">Livre</text><line style="stroke:#181818;stroke-width:0.5;" x1="468.3607" x2="614.3607" y1="278" y2="278"/><text fill="#000000" font-family="sans-serif" font-size="14" lengthAdjust="spacing" textLength="136" x="473.3607" y="294.9951">ISBN : string {key}</text><text fill="#000000" font-family="sans-serif" font-size="14" lengthAdjust="spacing" textLength="108" x="473.3607" y="311.292">resume : string</text><text fill="#000000" font-family="sans-serif" font-size="14" lengthAdjust="spacing" textLength="102" x="473.3607" y="327.5889">langue : string</text><line style="stroke:#181818;stroke-width:0.5;" x1="468.3607" x2="614.3607" y1="334.8906" y2="334.8906"/></g><!--MD5=[4331f6d23411dcf1b04124dd98b41119]
class Musique--><g id="elem_Musique"><rect codeLine="16" fill="#F1F1F1" height="64.2969" id="Musique" rx="2.5" ry="2.5" style="stroke:#181818;stroke-width:0.5;" width="107" x="324.8607" y="262.5"/><ellipse cx="347.9607" cy="278.5" fill="#ADD1B2" rx="11" ry="11" style="stroke:#181818;stroke-width:1.0;"/><path d="M350.3044,274.1719 C349.3669,273.7344 348.7732,273.5938 347.8982,273.5938 C345.2732,273.5938 343.2732,275.6719 343.2732,278.3906 L343.2732,279.5156 C343.2732,282.0938 345.3826,283.9844 348.2732,283.9844 C349.4919,283.9844 350.6482,283.6875 351.3982,283.1406 C351.9763,282.7344 352.3044,282.2813 352.3044,281.8906 C352.3044,281.4375 351.9138,281.0469 351.4451,281.0469 C351.2263,281.0469 351.0232,281.125 350.8357,281.3125 C350.3826,281.7969 350.3826,281.7969 350.1951,281.8906 C349.7732,282.1563 349.0857,282.2813 348.3201,282.2813 C346.2732,282.2813 344.9763,281.1875 344.9763,279.4844 L344.9763,278.3906 C344.9763,276.6094 346.2263,275.2969 347.9607,275.2969 C348.5388,275.2969 349.1482,275.4531 349.6169,275.7031 C350.1013,275.9844 350.2732,276.2031 350.3669,276.6094 C350.4294,277.0156 350.4607,277.1406 350.6013,277.2656 C350.7419,277.4063 350.9763,277.5156 351.1951,277.5156 C351.4607,277.5156 351.7263,277.375 351.8982,277.1563 C352.0076,277 352.0388,276.8125 352.0388,276.3906 L352.0388,274.9688 C352.0388,274.5313 352.0232,274.4063 351.9294,274.25 C351.7732,273.9844 351.4919,273.8438 351.1951,273.8438 C350.8982,273.8438 350.6951,273.9375 350.4763,274.25 L350.3044,274.1719 Z " fill="#000000"/><text fill="#000000" font-family="sans-serif" font-size="14" lengthAdjust="spacing" textLength="57" x="363.7607" y="283.3467">Musique</text><line style="stroke:#181818;stroke-width:0.5;" x1="325.8607" x2="430.8607" y1="294.5" y2="294.5"/><text fill="#000000" font-family="sans-serif" font-size="14" lengthAdjust="spacing" textLength="95" x="330.8607" y="311.4951">longueur : int</text><line style="stroke:#181818;stroke-width:0.5;" x1="325.8607" x2="430.8607" y1="318.7969" y2="318.7969"/></g><!--MD5=[8e95c13453fed63b2e6aa0fa1b4fbd98]
class Film--><g id="elem_Film"><rect codeLine="20" fill="#F1F1F1" height="96.8906" id="Film" rx="2.5" ry="2.5" style="stroke:#181818;stroke-width:0.5;" width="128" x="74.3609" y="246"/><ellipse cx="119.1109" cy="262" fill="#ADD1B2" rx="11" ry="11" style="stroke:#181818;stroke-width:1.0;"/><path d="M121.4546,257.6719 C120.5171,257.2344 119.9234,257.0938 119.0484,257.0938 C116.4234,257.0938 114.4234,259.1719 114.4234,261.8906 L114.4234,263.0156 C114.4234,265.5938 116.5328,267.4844 119.4234,267.4844 C120.6421,267.4844 121.7984,267.1875 122.5484,266.6406 C123.1265,266.2344 123.4546,265.7813 123.4546,265.3906 C123.4546,264.9375 123.064,264.5469 122.5953,264.5469 C122.3765,264.5469 122.1734,264.625 121.9859,264.8125 C121.5328,265.2969 121.5328,265.2969 121.3453,265.3906 C120.9234,265.6563 120.2359,265.7813 119.4703,265.7813 C117.4234,265.7813 116.1265,264.6875 116.1265,262.9844 L116.1265,261.8906 C116.1265,260.1094 117.3765,258.7969 119.1109,258.7969 C119.689,258.7969 120.2984,258.9531 120.7671,259.2031 C121.2515,259.4844 121.4234,259.7031 121.5171,260.1094 C121.5796,260.5156 121.6109,260.6406 121.7515,260.7656 C121.8921,260.9063 122.1265,261.0156 122.3453,261.0156 C122.6109,261.0156 122.8765,260.875 123.0484,260.6563 C123.1578,260.5 123.189,260.3125 123.189,259.8906 L123.189,258.4688 C123.189,258.0313 123.1734,257.9063 123.0796,257.75 C122.9234,257.4844 122.6421,257.3438 122.3453,257.3438 C122.0484,257.3438 121.8453,257.4375 121.6265,257.75 L121.4546,257.6719 Z " fill="#000000"/><text fill="#000000" font-family="sans-serif" font-size="14" lengthAdjust="spacing" textLength="30" x="139.6109" y="266.8467">Film</text><line style="stroke:#181818;stroke-width:0.5;" x1="75.3609" x2="201.3609" y1="278" y2="278"/><text fill="#000000" font-family="sans-serif" font-size="14" lengthAdjust="spacing" textLength="116" x="80.3609" y="294.9951">synopsis : string</text><text fill="#000000" font-family="sans-serif" font-size="14" lengthAdjust="spacing" textLength="102" x="80.3609" y="311.292">langue : string</text><text fill="#000000" font-family="sans-serif" font-size="14" lengthAdjust="spacing" textLength="113" x="80.3609" y="327.5889">longueur: string</text><line style="stroke:#181818;stroke-width:0.5;" x1="75.3609" x2="201.3609" y1="334.8906" y2="334.8906"/></g><!--MD5=[386988d0c39d7d616e04269ec528b1b2]
class Exemplaire--><g id="elem_Exemplaire"><rect codeLine="33" fill="#F1F1F1" height="80.5938" id="Exemplaire" rx="2.5" ry="2.5" style="stroke:#181818;stroke-width:0.5;" width="113" x="650.8607" y="254"/><ellipse cx="665.8607" cy="270" fill="#ADD1B2" rx="11" ry="11" style="stroke:#181818;stroke-width:1.0;"/><path d="M668.2044,265.6719 C667.2669,265.2344 666.6732,265.0938 665.7982,265.0938 C663.1732,265.0938 661.1732,267.1719 661.1732,269.8906 L661.1732,271.0156 C661.1732,273.5938 663.2826,275.4844 666.1732,275.4844 C667.3919,275.4844 668.5482,275.1875 669.2982,274.6406 C669.8763,274.2344 670.2044,273.7813 670.2044,273.3906 C670.2044,272.9375 669.8138,272.5469 669.3451,272.5469 C669.1263,272.5469 668.9232,272.625 668.7357,272.8125 C668.2826,273.2969 668.2826,273.2969 668.0951,273.3906 C667.6732,273.6563 666.9857,273.7813 666.2201,273.7813 C664.1732,273.7813 662.8763,272.6875 662.8763,270.9844 L662.8763,269.8906 C662.8763,268.1094 664.1263,266.7969 665.8607,266.7969 C666.4388,266.7969 667.0482,266.9531 667.5169,267.2031 C668.0013,267.4844 668.1732,267.7031 668.2669,268.1094 C668.3294,268.5156 668.3607,268.6406 668.5013,268.7656 C668.6419,268.9063 668.8763,269.0156 669.0951,269.0156 C669.3607,269.0156 669.6263,268.875 669.7982,268.6563 C669.9076,268.5 669.9388,268.3125 669.9388,267.8906 L669.9388,266.4688 C669.9388,266.0313 669.9232,265.9063 669.8294,265.75 C669.6732,265.4844 669.3919,265.3438 669.0951,265.3438 C668.7982,265.3438 668.5951,265.4375 668.3763,265.75 L668.2044,265.6719 Z " fill="#000000"/><text fill="#000000" font-family="sans-serif" font-size="14" lengthAdjust="spacing" textLength="81" x="679.8607" y="274.8467">Exemplaire</text><line style="stroke:#181818;stroke-width:0.5;" x1="651.8607" x2="762.8607" y1="286" y2="286"/><text fill="#000000" font-family="sans-serif" font-size="14" lengthAdjust="spacing" textLength="79" x="656.8607" y="302.9951">id : integer</text><text fill="#000000" font-family="sans-serif" font-size="14" lengthAdjust="spacing" textLength="84" x="656.8607" y="319.292">etat : enum</text><line style="stroke:#181818;stroke-width:0.5;" x1="651.8607" x2="762.8607" y1="326.5938" y2="326.5938"/></g><!--MD5=[354e8650cefe639d77b0834953981666]
class Utilisateur--><g id="elem_Utilisateur"><rect codeLine="40" fill="#F1F1F1" height="162.0781" id="Utilisateur" rx="2.5" ry="2.5" style="stroke:#181818;stroke-width:0.5;" width="174" x="609.3607" y="590"/><ellipse cx="656.1107" cy="606" fill="#A9DCDF" rx="11" ry="11" style="stroke:#181818;stroke-width:1.0;"/><path d="M658.1888,607.8125 L658.5794,608.7969 L658.1888,608.7969 C657.7357,608.7969 657.6263,608.8125 657.4701,608.9219 C657.2201,609.0781 657.0638,609.3594 657.0638,609.6563 C657.0638,609.9219 657.2044,610.1719 657.4232,610.3281 C657.5638,610.4531 657.7669,610.5 658.1888,610.5 L660.5482,610.5 C660.9076,610.5 661.1263,610.4688 661.2669,610.375 C661.5169,610.2344 661.6732,609.9375 661.6732,609.6563 C661.6732,609.375 661.5326,609.125 661.3138,608.9688 C661.1419,608.8281 660.9857,608.7969 660.5169,608.7969 L657.1263,600.5938 L653.4544,600.5938 C653.0013,600.5938 652.8763,600.6094 652.7201,600.7031 C652.4701,600.875 652.3138,601.1563 652.3138,601.4375 C652.3138,601.7188 652.4544,601.9688 652.6732,602.1406 C652.8451,602.25 653.0169,602.2813 653.4544,602.2813 L654.5326,602.2813 L651.8919,608.7969 C651.4701,608.7969 651.3138,608.8125 651.1576,608.9219 C650.9076,609.0781 650.7513,609.3594 650.7513,609.6563 C650.7513,610.2188 651.1263,610.5 651.8763,610.5 L654.1419,610.5 C654.5013,610.5 654.7201,610.4688 654.8451,610.375 C655.1107,610.2344 655.2513,609.9375 655.2513,609.6563 C655.2513,609.375 655.1263,609.125 654.9076,608.9531 C654.7357,608.8281 654.5951,608.7969 654.1419,608.7969 L653.7513,608.7969 L654.1419,607.8125 L658.1888,607.8125 Z M657.4857,606.1094 L654.8138,606.1094 L656.1576,602.8438 L657.4857,606.1094 Z " fill="#000000"/><text fill="#000000" font-family="sans-serif" font-size="14" font-style="italic" lengthAdjust="spacing" textLength="72" x="676.6107" y="610.8467">Utilisateur</text><line style="stroke:#181818;stroke-width:0.5;" x1="610.3607" x2="782.3607" y1="622" y2="622"/><text fill="#000000" font-family="sans-serif" font-size="14" lengthAdjust="spacing" textLength="87" x="615.3607" y="638.9951">nom : string</text><text fill="#000000" font-family="sans-serif" font-size="14" lengthAdjust="spacing" textLength="112" x="615.3607" y="655.292">prenom : string</text><text fill="#000000" font-family="sans-serif" font-size="14" lengthAdjust="spacing" textLength="155" x="615.3607" y="671.5889">num_adresse: integer</text><text fill="#000000" font-family="sans-serif" font-size="14" lengthAdjust="spacing" textLength="74" x="615.3607" y="687.8857">rue: string</text><text fill="#000000" font-family="sans-serif" font-size="14" lengthAdjust="spacing" textLength="162" x="615.3607" y="704.1826">code_postale : integer</text><text fill="#000000" font-family="sans-serif" font-size="14" lengthAdjust="spacing" textLength="80" x="615.3607" y="720.4795">ville: string</text><text fill="#000000" font-family="sans-serif" font-size="14" lengthAdjust="spacing" textLength="85" x="615.3607" y="736.7764">mail : string</text><line style="stroke:#181818;stroke-width:0.5;" x1="610.3607" x2="782.3607" y1="744.0781" y2="744.0781"/></g><!--MD5=[b780b5b86678f1ec3e2af5d019888fc7]
class Adherent--><g id="elem_Adherent"><rect codeLine="52" fill="#F1F1F1" height="96.8906" id="Adherent" rx="2.5" ry="2.5" style="stroke:#181818;stroke-width:0.5;" width="204" x="818.3607" y="622.5"/><ellipse cx="882.1107" cy="638.5" fill="#ADD1B2" rx="11" ry="11" style="stroke:#181818;stroke-width:1.0;"/><path d="M884.4544,634.1719 C883.5169,633.7344 882.9232,633.5938 882.0482,633.5938 C879.4232,633.5938 877.4232,635.6719 877.4232,638.3906 L877.4232,639.5156 C877.4232,642.0938 879.5326,643.9844 882.4232,643.9844 C883.6419,643.9844 884.7982,643.6875 885.5482,643.1406 C886.1263,642.7344 886.4544,642.2813 886.4544,641.8906 C886.4544,641.4375 886.0638,641.0469 885.5951,641.0469 C885.3763,641.0469 885.1732,641.125 884.9857,641.3125 C884.5326,641.7969 884.5326,641.7969 884.3451,641.8906 C883.9232,642.1563 883.2357,642.2813 882.4701,642.2813 C880.4232,642.2813 879.1263,641.1875 879.1263,639.4844 L879.1263,638.3906 C879.1263,636.6094 880.3763,635.2969 882.1107,635.2969 C882.6888,635.2969 883.2982,635.4531 883.7669,635.7031 C884.2513,635.9844 884.4232,636.2031 884.5169,636.6094 C884.5794,637.0156 884.6107,637.1406 884.7513,637.2656 C884.8919,637.4063 885.1263,637.5156 885.3451,637.5156 C885.6107,637.5156 885.8763,637.375 886.0482,637.1563 C886.1576,637 886.1888,636.8125 886.1888,636.3906 L886.1888,634.9688 C886.1888,634.5313 886.1732,634.4063 886.0794,634.25 C885.9232,633.9844 885.6419,633.8438 885.3451,633.8438 C885.0482,633.8438 884.8451,633.9375 884.6263,634.25 L884.4544,634.1719 Z " fill="#000000"/><text fill="#000000" font-family="sans-serif" font-size="14" lengthAdjust="spacing" textLength="68" x="902.6107" y="643.3467">Adherent</text><line style="stroke:#181818;stroke-width:0.5;" x1="819.3607" x2="1021.3607" y1="654.5" y2="654.5"/><text fill="#000000" font-family="sans-serif" font-size="14" lengthAdjust="spacing" textLength="176" x="824.3607" y="671.4951">date de naissance : Date</text><text fill="#000000" font-family="sans-serif" font-size="14" lengthAdjust="spacing" textLength="91" x="824.3607" y="687.792">num_tel : int</text><text fill="#000000" font-family="sans-serif" font-size="14" lengthAdjust="spacing" textLength="192" x="824.3607" y="704.0889">statut_adhesion : adhesion</text><line style="stroke:#181818;stroke-width:0.5;" x1="819.3607" x2="1021.3607" y1="711.3906" y2="711.3906"/></g><!--MD5=[8d278cfbb5bf143a306978983521a0a4]
class Sanction--><g id="elem_Sanction"><rect codeLine="57" fill="#F1F1F1" height="96.8906" id="Sanction" rx="2.5" ry="2.5" style="stroke:#181818;stroke-width:0.5;" width="173" x="922.8607" y="416"/><ellipse cx="973.6107" cy="432" fill="#ADD1B2" rx="11" ry="11" style="stroke:#181818;stroke-width:1.0;"/><path d="M975.9544,427.6719 C975.0169,427.2344 974.4232,427.0938 973.5482,427.0938 C970.9232,427.0938 968.9232,429.1719 968.9232,431.8906 L968.9232,433.0156 C968.9232,435.5938 971.0326,437.4844 973.9232,437.4844 C975.1419,437.4844 976.2982,437.1875 977.0482,436.6406 C977.6263,436.2344 977.9544,435.7813 977.9544,435.3906 C977.9544,434.9375 977.5638,434.5469 977.0951,434.5469 C976.8763,434.5469 976.6732,434.625 976.4857,434.8125 C976.0326,435.2969 976.0326,435.2969 975.8451,435.3906 C975.4232,435.6563 974.7357,435.7813 973.9701,435.7813 C971.9232,435.7813 970.6263,434.6875 970.6263,432.9844 L970.6263,431.8906 C970.6263,430.1094 971.8763,428.7969 973.6107,428.7969 C974.1888,428.7969 974.7982,428.9531 975.2669,429.2031 C975.7513,429.4844 975.9232,429.7031 976.0169,430.1094 C976.0794,430.5156 976.1107,430.6406 976.2513,430.7656 C976.3919,430.9063 976.6263,431.0156 976.8451,431.0156 C977.1107,431.0156 977.3763,430.875 977.5482,430.6563 C977.6576,430.5 977.6888,430.3125 977.6888,429.8906 L977.6888,428.4688 C977.6888,428.0313 977.6732,427.9063 977.5794,427.75 C977.4232,427.4844 977.1419,427.3438 976.8451,427.3438 C976.5482,427.3438 976.3451,427.4375 976.1263,427.75 L975.9544,427.6719 Z " fill="#000000"/><text fill="#000000" font-family="sans-serif" font-size="14" lengthAdjust="spacing" textLength="63" x="994.1107" y="436.8467">Sanction</text><line style="stroke:#181818;stroke-width:0.5;" x1="923.8607" x2="1094.8607" y1="448" y2="448"/><text fill="#000000" font-family="sans-serif" font-size="14" lengthAdjust="spacing" textLength="161" x="928.8607" y="464.9951">motif : motif_sanction</text><text fill="#000000" font-family="sans-serif" font-size="14" lengthAdjust="spacing" textLength="131" x="928.8607" y="481.292">date_debut : Date</text><text fill="#000000" font-family="sans-serif" font-size="14" lengthAdjust="spacing" textLength="107" x="928.8607" y="497.5889">date_fin : Date</text><line style="stroke:#181818;stroke-width:0.5;" x1="923.8607" x2="1094.8607" y1="504.8906" y2="504.8906"/></g><!--MD5=[1f907150bf633ef62d665892cce823a3]
class personnel--><g id="elem_personnel"><rect fill="#F1F1F1" height="48" id="personnel" rx="2.5" ry="2.5" style="stroke:#181818;stroke-width:0.5;" width="104" x="470.3607" y="647"/><ellipse cx="485.3607" cy="663" fill="#ADD1B2" rx="11" ry="11" style="stroke:#181818;stroke-width:1.0;"/><path d="M487.7044,658.6719 C486.7669,658.2344 486.1732,658.0938 485.2982,658.0938 C482.6732,658.0938 480.6732,660.1719 480.6732,662.8906 L480.6732,664.0156 C480.6732,666.5938 482.7826,668.4844 485.6732,668.4844 C486.8919,668.4844 488.0482,668.1875 488.7982,667.6406 C489.3763,667.2344 489.7044,666.7813 489.7044,666.3906 C489.7044,665.9375 489.3138,665.5469 488.8451,665.5469 C488.6263,665.5469 488.4232,665.625 488.2357,665.8125 C487.7826,666.2969 487.7826,666.2969 487.5951,666.3906 C487.1732,666.6563 486.4857,666.7813 485.7201,666.7813 C483.6732,666.7813 482.3763,665.6875 482.3763,663.9844 L482.3763,662.8906 C482.3763,661.1094 483.6263,659.7969 485.3607,659.7969 C485.9388,659.7969 486.5482,659.9531 487.0169,660.2031 C487.5013,660.4844 487.6732,660.7031 487.7669,661.1094 C487.8294,661.5156 487.8607,661.6406 488.0013,661.7656 C488.1419,661.9063 488.3763,662.0156 488.5951,662.0156 C488.8607,662.0156 489.1263,661.875 489.2982,661.6563 C489.4076,661.5 489.4388,661.3125 489.4388,660.8906 L489.4388,659.4688 C489.4388,659.0313 489.4232,658.9063 489.3294,658.75 C489.1732,658.4844 488.8919,658.3438 488.5951,658.3438 C488.2982,658.3438 488.0951,658.4375 487.8763,658.75 L487.7044,658.6719 Z " fill="#000000"/><text fill="#000000" font-family="sans-serif" font-size="14" lengthAdjust="spacing" textLength="72" x="499.3607" y="667.8467">personnel</text><line style="stroke:#181818;stroke-width:0.5;" x1="471.3607" x2="573.3607" y1="679" y2="679"/><line style="stroke:#181818;stroke-width:0.5;" x1="471.3607" x2="573.3607" y1="687" y2="687"/></g><!--MD5=[55a9f513ff876a6970678761cb3a400d]
class Compte--><g id="elem_Compte"><rect codeLine="70" fill="#F1F1F1" height="80.5938" id="Compte" rx="2.5" ry="2.5" style="stroke:#181818;stroke-width:0.5;" width="134" x="629.3607" y="813"/><ellipse cx="663.7107" cy="829" fill="#ADD1B2" rx="11" ry="11" style="stroke:#181818;stroke-width:1.0;"/><path d="M666.0544,824.6719 C665.1169,824.2344 664.5232,824.0938 663.6482,824.0938 C661.0232,824.0938 659.0232,826.1719 659.0232,828.8906 L659.0232,830.0156 C659.0232,832.5938 661.1326,834.4844 664.0232,834.4844 C665.2419,834.4844 666.3982,834.1875 667.1482,833.6406 C667.7263,833.2344 668.0544,832.7813 668.0544,832.3906 C668.0544,831.9375 667.6638,831.5469 667.1951,831.5469 C666.9763,831.5469 666.7732,831.625 666.5857,831.8125 C666.1326,832.2969 666.1326,832.2969 665.9451,832.3906 C665.5232,832.6563 664.8357,832.7813 664.0701,832.7813 C662.0232,832.7813 660.7263,831.6875 660.7263,829.9844 L660.7263,828.8906 C660.7263,827.1094 661.9763,825.7969 663.7107,825.7969 C664.2888,825.7969 664.8982,825.9531 665.3669,826.2031 C665.8513,826.4844 666.0232,826.7031 666.1169,827.1094 C666.1794,827.5156 666.2107,827.6406 666.3513,827.7656 C666.4919,827.9063 666.7263,828.0156 666.9451,828.0156 C667.2107,828.0156 667.4763,827.875 667.6482,827.6563 C667.7576,827.5 667.7888,827.3125 667.7888,826.8906 L667.7888,825.4688 C667.7888,825.0313 667.7732,824.9063 667.6794,824.75 C667.5232,824.4844 667.2419,824.3438 666.9451,824.3438 C666.6482,824.3438 666.4451,824.4375 666.2263,824.75 L666.0544,824.6719 Z " fill="#000000"/><text fill="#000000" font-family="sans-serif" font-size="14" lengthAdjust="spacing" textLength="59" x="682.0107" y="833.8467">Compte</text><line style="stroke:#181818;stroke-width:0.5;" x1="630.3607" x2="762.3607" y1="845" y2="845"/><text fill="#000000" font-family="sans-serif" font-size="14" lengthAdjust="spacing" textLength="90" x="635.3607" y="861.9951">login : string</text><text fill="#000000" font-family="sans-serif" font-size="14" lengthAdjust="spacing" textLength="122" x="635.3607" y="878.292">password : string</text><line style="stroke:#181818;stroke-width:0.5;" x1="630.3607" x2="762.3607" y1="885.5938" y2="885.5938"/></g><!--MD5=[da4ca886c514f41ebeca2f269c3da817]
class Contributeur--><g id="elem_Contributeur"><rect codeLine="75" fill="#F1F1F1" height="113.1875" id="Contributeur" rx="2.5" ry="2.5" style="stroke:#181818;stroke-width:0.5;" width="169" x="177.8607" y="614.5"/><ellipse cx="212.6607" cy="630.5" fill="#ADD1B2" rx="11" ry="11" style="stroke:#181818;stroke-width:1.0;"/><path d="M215.0044,626.1719 C214.0669,625.7344 213.4732,625.5938 212.5982,625.5938 C209.9732,625.5938 207.9732,627.6719 207.9732,630.3906 L207.9732,631.5156 C207.9732,634.0938 210.0826,635.9844 212.9732,635.9844 C214.1919,635.9844 215.3482,635.6875 216.0982,635.1406 C216.6763,634.7344 217.0044,634.2813 217.0044,633.8906 C217.0044,633.4375 216.6138,633.0469 216.1451,633.0469 C215.9263,633.0469 215.7232,633.125 215.5357,633.3125 C215.0826,633.7969 215.0826,633.7969 214.8951,633.8906 C214.4732,634.1563 213.7857,634.2813 213.0201,634.2813 C210.9732,634.2813 209.6763,633.1875 209.6763,631.4844 L209.6763,630.3906 C209.6763,628.6094 210.9263,627.2969 212.6607,627.2969 C213.2388,627.2969 213.8482,627.4531 214.3169,627.7031 C214.8013,627.9844 214.9732,628.2031 215.0669,628.6094 C215.1294,629.0156 215.1607,629.1406 215.3013,629.2656 C215.4419,629.4063 215.6763,629.5156 215.8951,629.5156 C216.1607,629.5156 216.4263,629.375 216.5982,629.1563 C216.7076,629 216.7388,628.8125 216.7388,628.3906 L216.7388,626.9688 C216.7388,626.5313 216.7232,626.4063 216.6294,626.25 C216.4732,625.9844 216.1919,625.8438 215.8951,625.8438 C215.5982,625.8438 215.3951,625.9375 215.1763,626.25 L215.0044,626.1719 Z " fill="#000000"/><text fill="#000000" font-family="sans-serif" font-size="14" lengthAdjust="spacing" textLength="93" x="231.0607" y="635.3467">Contributeur</text><line style="stroke:#181818;stroke-width:0.5;" x1="178.8607" x2="345.8607" y1="646.5" y2="646.5"/><text fill="#000000" font-family="sans-serif" font-size="14" lengthAdjust="spacing" textLength="87" x="183.8607" y="663.4951">nom : string</text><text fill="#000000" font-family="sans-serif" font-size="14" lengthAdjust="spacing" textLength="112" x="183.8607" y="679.792">prenom : string</text><text fill="#000000" font-family="sans-serif" font-size="14" lengthAdjust="spacing" textLength="157" x="183.8607" y="696.0889">date_naissance : Date</text><text fill="#000000" font-family="sans-serif" font-size="14" lengthAdjust="spacing" textLength="133" x="183.8607" y="712.3857">nationalite : string</text><line style="stroke:#181818;stroke-width:0.5;" x1="178.8607" x2="345.8607" y1="719.6875" y2="719.6875"/></g><!--MD5=[347d84873f807cba40499bed1f526e46]
class Prêt--><g id="elem_Prêt"><rect codeLine="90" fill="#F1F1F1" height="96.8906" id="Prêt" rx="2.5" ry="2.5" style="stroke:#181818;stroke-width:0.5;" width="143" x="744.8607" y="416"/><ellipse cx="796.6107" cy="432" fill="#ADD1B2" rx="11" ry="11" style="stroke:#181818;stroke-width:1.0;"/><path d="M798.9544,427.6719 C798.0169,427.2344 797.4232,427.0938 796.5482,427.0938 C793.9232,427.0938 791.9232,429.1719 791.9232,431.8906 L791.9232,433.0156 C791.9232,435.5938 794.0326,437.4844 796.9232,437.4844 C798.1419,437.4844 799.2982,437.1875 800.0482,436.6406 C800.6263,436.2344 800.9544,435.7813 800.9544,435.3906 C800.9544,434.9375 800.5638,434.5469 800.0951,434.5469 C799.8763,434.5469 799.6732,434.625 799.4857,434.8125 C799.0326,435.2969 799.0326,435.2969 798.8451,435.3906 C798.4232,435.6563 797.7357,435.7813 796.9701,435.7813 C794.9232,435.7813 793.6263,434.6875 793.6263,432.9844 L793.6263,431.8906 C793.6263,430.1094 794.8763,428.7969 796.6107,428.7969 C797.1888,428.7969 797.7982,428.9531 798.2669,429.2031 C798.7513,429.4844 798.9232,429.7031 799.0169,430.1094 C799.0794,430.5156 799.1107,430.6406 799.2513,430.7656 C799.3919,430.9063 799.6263,431.0156 799.8451,431.0156 C800.1107,431.0156 800.3763,430.875 800.5482,430.6563 C800.6576,430.5 800.6888,430.3125 800.6888,429.8906 L800.6888,428.4688 C800.6888,428.0313 800.6732,427.9063 800.5794,427.75 C800.4232,427.4844 800.1419,427.3438 799.8451,427.3438 C799.5482,427.3438 799.3451,427.4375 799.1263,427.75 L798.9544,427.6719 Z " fill="#000000"/><text fill="#000000" font-family="sans-serif" font-size="14" lengthAdjust="spacing" textLength="31" x="817.1107" y="436.8467">Prêt</text><line style="stroke:#181818;stroke-width:0.5;" x1="745.8607" x2="886.8607" y1="448" y2="448"/><text fill="#000000" font-family="sans-serif" font-size="14" lengthAdjust="spacing" textLength="131" x="750.8607" y="464.9951">date_debut : Date</text><text fill="#000000" font-family="sans-serif" font-size="14" lengthAdjust="spacing" textLength="107" x="750.8607" y="481.292">date_fin : Date</text><text fill="#000000" font-family="sans-serif" font-size="14" lengthAdjust="spacing" textLength="113" x="750.8607" y="497.5889">rendu : Booleen</text><line style="stroke:#181818;stroke-width:0.5;" x1="745.8607" x2="886.8607" y1="504.8906" y2="504.8906"/></g><ellipse cx="707.3607" cy="464.5" fill="#181818" rx="2" ry="2" style="stroke:#181818;stroke-width:1.0;"/><!--MD5=[47fedd150148c6847f3f4df92f13fc80]
class Adhesion--><g id="elem_Adhesion"><rect codeLine="100" fill="#F1F1F1" height="121.4531" id="Adhesion" rx="2.5" ry="2.5" style="stroke:#181818;stroke-width:0.5;" width="98" x="802.3607" y="19.5"/><ellipse cx="817.3607" cy="39.6328" fill="#EB937F" rx="11" ry="11" style="stroke:#181818;stroke-width:1.0;"/><path d="M816.1576,40.5078 L817.6107,40.5078 L817.6107,40.6172 C817.6107,41.0234 817.6419,41.1797 817.7201,41.3359 C817.8763,41.5859 818.1576,41.7422 818.4544,41.7422 C818.7044,41.7422 818.9701,41.6016 819.1263,41.3828 C819.2513,41.2266 819.2826,41.0703 819.2826,40.6172 L819.2826,38.6953 C819.2826,38.5391 819.2826,38.4922 819.2669,38.3359 C819.2044,37.8672 818.8919,37.5547 818.4388,37.5547 C818.1888,37.5547 817.9232,37.6953 817.7513,37.9141 C817.6419,38.0859 817.6107,38.2422 817.6107,38.6953 L817.6107,38.8203 L816.1576,38.8203 L816.1576,36.4141 L820.1419,36.4141 L820.1419,37.2734 C820.1419,37.6797 820.1732,37.8516 820.2513,38.0078 C820.4232,38.2578 820.7044,38.4141 820.9857,38.4141 C821.2513,38.4141 821.5169,38.2734 821.6888,38.0547 C821.7982,37.8828 821.8294,37.7422 821.8294,37.2734 L821.8294,34.7266 L814.2044,34.7266 C813.7669,34.7266 813.6419,34.7422 813.4857,34.8359 C813.2357,34.9922 813.0794,35.2891 813.0794,35.5703 C813.0794,35.8516 813.2201,36.1016 813.4388,36.2734 C813.5951,36.3828 813.7826,36.4141 814.2044,36.4141 L814.4544,36.4141 L814.4544,42.9297 L814.2044,42.9297 C813.7982,42.9297 813.6419,42.9453 813.4857,43.0547 C813.2357,43.2266 813.0794,43.4922 813.0794,43.7891 C813.0794,44.0547 813.2201,44.3047 813.4388,44.4609 C813.5794,44.5859 813.8138,44.6328 814.2044,44.6328 L822.2044,44.6328 L822.2044,42.0547 C822.2044,41.6172 822.1732,41.4766 822.0951,41.3203 C821.9232,41.0703 821.6419,40.9141 821.3607,40.9141 C821.0951,40.9141 820.8294,41.0234 820.6576,41.2734 C820.5482,41.4297 820.5169,41.5703 820.5169,42.0547 L820.5169,42.9297 L816.1576,42.9297 L816.1576,40.5078 Z " fill="#000000"/><text fill="#000000" font-family="sans-serif" font-size="12" font-style="italic" lengthAdjust="spacing" textLength="49" x="839.8607" y="35.6387">«enum»</text><text fill="#000000" font-family="sans-serif" font-size="14" lengthAdjust="spacing" textLength="66" x="831.3607" y="51.4639">Adhesion</text><line style="stroke:#181818;stroke-width:0.5;" x1="803.3607" x2="899.3607" y1="59.7656" y2="59.7656"/><text fill="#000000" font-family="sans-serif" font-size="14" lengthAdjust="spacing" textLength="44" x="808.3607" y="76.7607">active</text><text fill="#000000" font-family="sans-serif" font-size="14" lengthAdjust="spacing" textLength="55" x="808.3607" y="93.0576">expiree</text><text fill="#000000" font-family="sans-serif" font-size="14" lengthAdjust="spacing" textLength="76" x="808.3607" y="109.3545">suspendue</text><text fill="#000000" font-family="sans-serif" font-size="14" lengthAdjust="spacing" textLength="79" x="808.3607" y="125.6514">blacklistee</text><line style="stroke:#181818;stroke-width:0.5;" x1="803.3607" x2="899.3607" y1="132.9531" y2="132.9531"/></g><!--MD5=[402d4390509e2e8a1a4642b5a758cdf2]
class Motif_sanction--><g id="elem_Motif_sanction"><rect codeLine="107" fill="#F1F1F1" height="105.1563" id="Motif_sanction" rx="2.5" ry="2.5" style="stroke:#181818;stroke-width:0.5;" width="138" x="935.3607" y="27.5"/><ellipse cx="950.3607" cy="47.6328" fill="#EB937F" rx="11" ry="11" style="stroke:#181818;stroke-width:1.0;"/><path d="M949.1576,48.5078 L950.6107,48.5078 L950.6107,48.6172 C950.6107,49.0234 950.6419,49.1797 950.7201,49.3359 C950.8763,49.5859 951.1576,49.7422 951.4544,49.7422 C951.7044,49.7422 951.9701,49.6016 952.1263,49.3828 C952.2513,49.2266 952.2826,49.0703 952.2826,48.6172 L952.2826,46.6953 C952.2826,46.5391 952.2826,46.4922 952.2669,46.3359 C952.2044,45.8672 951.8919,45.5547 951.4388,45.5547 C951.1888,45.5547 950.9232,45.6953 950.7513,45.9141 C950.6419,46.0859 950.6107,46.2422 950.6107,46.6953 L950.6107,46.8203 L949.1576,46.8203 L949.1576,44.4141 L953.1419,44.4141 L953.1419,45.2734 C953.1419,45.6797 953.1732,45.8516 953.2513,46.0078 C953.4232,46.2578 953.7044,46.4141 953.9857,46.4141 C954.2513,46.4141 954.5169,46.2734 954.6888,46.0547 C954.7982,45.8828 954.8294,45.7422 954.8294,45.2734 L954.8294,42.7266 L947.2044,42.7266 C946.7669,42.7266 946.6419,42.7422 946.4857,42.8359 C946.2357,42.9922 946.0794,43.2891 946.0794,43.5703 C946.0794,43.8516 946.2201,44.1016 946.4388,44.2734 C946.5951,44.3828 946.7826,44.4141 947.2044,44.4141 L947.4544,44.4141 L947.4544,50.9297 L947.2044,50.9297 C946.7982,50.9297 946.6419,50.9453 946.4857,51.0547 C946.2357,51.2266 946.0794,51.4922 946.0794,51.7891 C946.0794,52.0547 946.2201,52.3047 946.4388,52.4609 C946.5794,52.5859 946.8138,52.6328 947.2044,52.6328 L955.2044,52.6328 L955.2044,50.0547 C955.2044,49.6172 955.1732,49.4766 955.0951,49.3203 C954.9232,49.0703 954.6419,48.9141 954.3607,48.9141 C954.0951,48.9141 953.8294,49.0234 953.6576,49.2734 C953.5482,49.4297 953.5169,49.5703 953.5169,50.0547 L953.5169,50.9297 L949.1576,50.9297 L949.1576,48.5078 Z " fill="#000000"/><text fill="#000000" font-family="sans-serif" font-size="12" font-style="italic" lengthAdjust="spacing" textLength="49" x="992.8607" y="43.6387">«enum»</text><text fill="#000000" font-family="sans-serif" font-size="14" lengthAdjust="spacing" textLength="106" x="964.3607" y="59.4639">Motif_sanction</text><line style="stroke:#181818;stroke-width:0.5;" x1="936.3607" x2="1072.3607" y1="67.7656" y2="67.7656"/><text fill="#000000" font-family="sans-serif" font-size="14" lengthAdjust="spacing" textLength="45" x="941.3607" y="84.7607">retard</text><text fill="#000000" font-family="sans-serif" font-size="14" lengthAdjust="spacing" textLength="96" x="941.3607" y="101.0576">deterioration</text><text fill="#000000" font-family="sans-serif" font-size="14" lengthAdjust="spacing" textLength="41" x="941.3607" y="117.3545">perte</text><line style="stroke:#181818;stroke-width:0.5;" x1="936.3607" x2="1072.3607" y1="124.6563" y2="124.6563"/></g><!--MD5=[447abfa206548bbd5d74823c83eb0e16]
class type_etat--><g id="elem_type_etat"><rect codeLine="113" fill="#F1F1F1" height="121.4531" id="type_etat" rx="2.5" ry="2.5" style="stroke:#181818;stroke-width:0.5;" width="104" x="799.3607" y="234"/><ellipse cx="814.3607" cy="254.1328" fill="#EB937F" rx="11" ry="11" style="stroke:#181818;stroke-width:1.0;"/><path d="M813.1576,255.0078 L814.6107,255.0078 L814.6107,255.1172 C814.6107,255.5234 814.6419,255.6797 814.7201,255.8359 C814.8763,256.0859 815.1576,256.2422 815.4544,256.2422 C815.7044,256.2422 815.9701,256.1016 816.1263,255.8828 C816.2513,255.7266 816.2826,255.5703 816.2826,255.1172 L816.2826,253.1953 C816.2826,253.0391 816.2826,252.9922 816.2669,252.8359 C816.2044,252.3672 815.8919,252.0547 815.4388,252.0547 C815.1888,252.0547 814.9232,252.1953 814.7513,252.4141 C814.6419,252.5859 814.6107,252.7422 814.6107,253.1953 L814.6107,253.3203 L813.1576,253.3203 L813.1576,250.9141 L817.1419,250.9141 L817.1419,251.7734 C817.1419,252.1797 817.1732,252.3516 817.2513,252.5078 C817.4232,252.7578 817.7044,252.9141 817.9857,252.9141 C818.2513,252.9141 818.5169,252.7734 818.6888,252.5547 C818.7982,252.3828 818.8294,252.2422 818.8294,251.7734 L818.8294,249.2266 L811.2044,249.2266 C810.7669,249.2266 810.6419,249.2422 810.4857,249.3359 C810.2357,249.4922 810.0794,249.7891 810.0794,250.0703 C810.0794,250.3516 810.2201,250.6016 810.4388,250.7734 C810.5951,250.8828 810.7826,250.9141 811.2044,250.9141 L811.4544,250.9141 L811.4544,257.4297 L811.2044,257.4297 C810.7982,257.4297 810.6419,257.4453 810.4857,257.5547 C810.2357,257.7266 810.0794,257.9922 810.0794,258.2891 C810.0794,258.5547 810.2201,258.8047 810.4388,258.9609 C810.5794,259.0859 810.8138,259.1328 811.2044,259.1328 L819.2044,259.1328 L819.2044,256.5547 C819.2044,256.1172 819.1732,255.9766 819.0951,255.8203 C818.9232,255.5703 818.6419,255.4141 818.3607,255.4141 C818.0951,255.4141 817.8294,255.5234 817.6576,255.7734 C817.5482,255.9297 817.5169,256.0703 817.5169,256.5547 L817.5169,257.4297 L813.1576,257.4297 L813.1576,255.0078 Z " fill="#000000"/><text fill="#000000" font-family="sans-serif" font-size="12" font-style="italic" lengthAdjust="spacing" textLength="49" x="839.8607" y="250.1387">«enum»</text><text fill="#000000" font-family="sans-serif" font-size="14" lengthAdjust="spacing" textLength="72" x="828.3607" y="265.9639">type_etat</text><line style="stroke:#181818;stroke-width:0.5;" x1="800.3607" x2="902.3607" y1="274.2656" y2="274.2656"/><text fill="#000000" font-family="sans-serif" font-size="14" lengthAdjust="spacing" textLength="33" x="805.3607" y="291.2607">Neuf</text><text fill="#000000" font-family="sans-serif" font-size="14" lengthAdjust="spacing" textLength="28" x="805.3607" y="307.5576">Bon</text><text fill="#000000" font-family="sans-serif" font-size="14" lengthAdjust="spacing" textLength="47" x="805.3607" y="323.8545">Abime</text><text fill="#000000" font-family="sans-serif" font-size="14" lengthAdjust="spacing" textLength="41" x="805.3607" y="340.1514">Perdu</text><line style="stroke:#181818;stroke-width:0.5;" x1="800.3607" x2="902.3607" y1="347.4531" y2="347.4531"/></g><!--MD5=[7633c2b0c93e0257c8d8b073a8b1dc6a]
reverse link Ressource to Livre--><g id="link_Ressource_Livre"><path codeLine="26" d="M427.3607,174 C427.3607,174 464.1867,212.602 495.9777,245.927 " fill="none" id="Ressource-backto-Livre" style="stroke:#181818;stroke-width:1.0;"/></g><!--MD5=[74eb291e2bb726c09bb16704e6f55a84]
reverse link Ressource to Film--><g id="link_Ressource_Film"><path codeLine="27" d="M427.3607,174 C427.3607,174 287.6407,231.773 202.4997,266.979 " fill="none" id="Ressource-backto-Film" style="stroke:#181818;stroke-width:1.0;"/></g><!--MD5=[95e35c934fdeb48b61fbd4080f76926a]
reverse link Ressource to Musique--><g id="link_Ressource_Musique"><path codeLine="28" d="M427.3607,174 C427.3607,174 405.6257,227.007 391.1067,262.415 " fill="none" id="Ressource-backto-Musique" style="stroke:#181818;stroke-width:1.0;"/></g><!--MD5=[45f76c804fcb5de9a72b3cca1103987b]
reverse link Ressource to Exemplaire--><g id="link_Ressource_Exemplaire"><path codeLine="38" d="M577.1307,181.911 C606.9227,207.439 637.1967,233.379 661.0477,253.817 " fill="none" id="Ressource-backto-Exemplaire" style="stroke:#181818;stroke-width:1.0;"/><polygon fill="#181818" points="567.0557,173.279,569.0091,180.2205,576.168,181.0871,574.2145,174.1456,567.0557,173.279" style="stroke:#181818;stroke-width:1.0;"/><text fill="#000000" font-family="sans-serif" font-size="13" lengthAdjust="spacing" textLength="24" x="627.3896" y="242.9482">1..n</text></g><!--MD5=[8abff79180a96bcb19509fc444c605a3]
link personnel to Utilisateur--><g id="link_personnel_Utilisateur"><path codeLine="65" d="M574.6967,671 C579.4197,671 584.1427,671 588.8657,671 " fill="none" id="personnel-to-Utilisateur" style="stroke:#181818;stroke-width:1.0;"/><polygon fill="none" points="588.9147,664,608.9147,671,588.9147,678,588.9147,664" style="stroke:#181818;stroke-width:1.0;"/></g><!--MD5=[36a0f70a91a67d2d798cf1d62c437d60]
reverse link Utilisateur to Compte--><g id="link_Utilisateur_Compte"><path codeLine="66" d="M696.3607,765.503 C696.3607,782.078 696.3607,798.506 696.3607,812.5479 " fill="none" id="Utilisateur-backto-Compte" style="stroke:#181818;stroke-width:1.0;"/><polygon fill="#181818" points="696.3607,752.221,692.3607,758.221,696.3607,764.221,700.3607,758.221,696.3607,752.221" style="stroke:#181818;stroke-width:1.0;"/><text fill="#000000" font-family="sans-serif" font-size="13" lengthAdjust="spacing" textLength="8" x="687.7232" y="801.9357">1</text></g><!--MD5=[93f56c12a977a39348a0c814bd07598a]
reverse link Utilisateur to Adherent--><g id="link_Utilisateur_Adherent"><path codeLine="67" d="M803.5247,671 C808.4137,671 813.3037,671 818.1927,671 " fill="none" id="Utilisateur-backto-Adherent" style="stroke:#181818;stroke-width:1.0;"/><polygon fill="none" points="803.4237,678,783.4237,671,803.4237,664,803.4237,678" style="stroke:#181818;stroke-width:1.0;"/></g><!--MD5=[ebf894eedf1ecc8d15b34ee0c775c141]
link Sanction to Adherent--><g id="link_Sanction_Adherent"><path codeLine="69" d="M988.6067,513.188 C974.3277,545.999 955.4347,589.41 941.1477,622.236 " fill="none" id="Sanction-Adherent" style="stroke:#181818;stroke-width:1.0;"/><text fill="#000000" font-family="sans-serif" font-size="13" lengthAdjust="spacing" textLength="97" x="976.3607" y="556.0669">est_sanctionne</text><text fill="#000000" font-family="sans-serif" font-size="13" lengthAdjust="spacing" textLength="7" x="978.3475" y="532.8214">*</text><text fill="#000000" font-family="sans-serif" font-size="13" lengthAdjust="spacing" textLength="8" x="935.5084" y="611.4078">1</text></g><!--MD5=[bf74b65292b3b96694d46ded2c7c6c86]
link Livre to Contributeur--><g id="link_Livre_Contributeur"><path codeLine="84" d="M540.2317,343.143 C536.9957,390.061 526.1467,461.921 491.3607,513 C455.7487,565.292 396.4587,605.233 347.1307,631.742 " fill="none" id="Livre-Contributeur" style="stroke:#181818;stroke-width:1.0;"/><polygon fill="#000000" points="538.1412,460.4108,530.6686,466.294,535.5538,469.5627,538.1412,460.4108" style="stroke:#000000;stroke-width:1.0;"/><text fill="#000000" font-family="sans-serif" font-size="13" lengthAdjust="spacing" textLength="40" x="544.3607" y="469.0669">a écrit</text><text fill="#000000" font-family="sans-serif" font-size="13" lengthAdjust="spacing" textLength="7" x="532.5807" y="363.122">*</text><text fill="#000000" font-family="sans-serif" font-size="13" lengthAdjust="spacing" textLength="20" x="354.9788" y="624.9345">1.n</text></g><!--MD5=[c03408f713979af557f395a81b83529b]
link Musique to Contributeur--><g id="link_Musique_Contributeur"><path codeLine="85" d="M347.7967,326.891 C327.5807,349.679 302.4687,382.309 289.3607,416 C264.1577,480.782 259.6957,561.46 260.0247,614.28 " fill="none" id="Musique-Contributeur" style="stroke:#181818;stroke-width:1.0;"/><polygon fill="#000000" points="295.8211,459.7845,290.3684,467.5766,295.9899,469.2935,295.8211,459.7845" style="stroke:#000000;stroke-width:1.0;"/><text fill="#000000" font-family="sans-serif" font-size="13" lengthAdjust="spacing" textLength="71" x="303.3607" y="469.0669">a composé</text><text fill="#000000" font-family="sans-serif" font-size="13" lengthAdjust="spacing" textLength="7" x="334.0903" y="346.7953">*</text><text fill="#000000" font-family="sans-serif" font-size="13" lengthAdjust="spacing" textLength="20" x="260.9587" y="603.5167">1.n</text></g><!--MD5=[c03408f713979af557f395a81b83529b]
link Musique to Contributeur--><g id="link_Musique_Contributeur"><path codeLine="86" d="M384.5987,326.73 C391.8677,369.872 400.3997,449.561 379.3607,513 C366.8957,550.589 341.5447,586.48 317.6187,614.434 " fill="none" id="Musique-Contributeur-1" style="stroke:#181818;stroke-width:1.0;"/><polygon fill="#000000" points="399.4944,459.6966,394.5811,467.8397,400.3059,469.1725,399.4944,459.6966" style="stroke:#000000;stroke-width:1.0;"/><text fill="#000000" font-family="sans-serif" font-size="13" lengthAdjust="spacing" textLength="75" x="407.3607" y="469.0669">a interprété</text><text fill="#000000" font-family="sans-serif" font-size="13" lengthAdjust="spacing" textLength="7" x="378.1634" y="346.9743">*</text><text fill="#000000" font-family="sans-serif" font-size="13" lengthAdjust="spacing" textLength="20" x="303.4174" y="603.2889">1.n</text></g><!--MD5=[929fcefe8288978fbc431bb7bf544a62]
link Film to Contributeur--><g id="link_Film_Contributeur"><path codeLine="87" d="M78.2852,343.258 C57.746,363.284 37.2247,388.354 26.3609,416 C10.5935,456.124 6,475 26.3609,513 C58.2599,572.534 123.7907,613.359 177.7207,638.425 " fill="none" id="Film-Contributeur" style="stroke:#181818;stroke-width:1.0;"/><polygon fill="#000000" points="29.7646,459.8281,29.8671,469.3381,35.4374,467.4616,29.7646,459.8281" style="stroke:#000000;stroke-width:1.0;"/><text fill="#000000" font-family="sans-serif" font-size="13" lengthAdjust="spacing" textLength="54" x="40.3609" y="469.0669">a réalisé</text><text fill="#000000" font-family="sans-serif" font-size="13" lengthAdjust="spacing" textLength="7" x="62.7422" y="362.9008">*</text><text fill="#000000" font-family="sans-serif" font-size="13" lengthAdjust="spacing" textLength="20" x="149.8833" y="632.1709">1.n</text></g><!--MD5=[929fcefe8288978fbc431bb7bf544a62]
link Film to Contributeur--><g id="link_Film_Contributeur"><path codeLine="88" d="M152.3267,343.237 C165.4357,387.449 185.8907,454.935 205.3607,513 C216.7007,546.817 230.3017,584.381 241.3737,614.285 " fill="none" id="Film-Contributeur-1" style="stroke:#181818;stroke-width:1.0;"/><polygon fill="#000000" points="208.8001,459.8162,208.8311,469.3267,214.4153,467.4921,208.8001,459.8162" style="stroke:#000000;stroke-width:1.0;"/><text fill="#000000" font-family="sans-serif" font-size="13" lengthAdjust="spacing" textLength="39" x="219.3607" y="469.0669">a joué</text><text fill="#000000" font-family="sans-serif" font-size="13" lengthAdjust="spacing" textLength="7" x="146.733" y="362.877">*</text><text fill="#000000" font-family="sans-serif" font-size="13" lengthAdjust="spacing" textLength="20" x="217.5971" y="603.5224">1.n</text></g><!--MD5=[963b23730988a16f8b97346af96e2bb1]
link Exemplaire to apoint33--><g id="link_Exemplaire_apoint33"><path d="M707.3607,335.314 C707.3607,381.5 707.3607,452.603 707.3607,462.373 " fill="none" id="Exemplaire-apoint33" style="stroke:#181818;stroke-width:1.0;"/></g><!--MD5=[be0eda258d0dccbba7a6b23877d54224]
link apoint33 to Adherent--><g id="link_apoint33_Adherent"><path d="M707.6567,466.789 C709.0427,472.623 715.3397,496.962 727.3607,513 C759.6137,556.03 806.1427,594.339 845.4347,622.343 " fill="none" id="apoint33-Adherent" style="stroke:#181818;stroke-width:1.0;"/></g><!--MD5=[703571f7bf270729420c3c064098eafe]
link apoint33 to Prêt--><g id="link_apoint33_Prêt"><path d="M709.4897,464.5 C721.1787,464.5 732.8677,464.5 744.5567,464.5 " fill="none" id="apoint33-Prêt" style="stroke:#181818;stroke-width:1.0;stroke-dasharray:7.0,7.0;"/></g><!--MD5=[30d1bebafbc45abe7be8786f938fec74]
@startuml
skinparam groupInheritance 2
abstract class Ressource {
    code : int {key}
    titre : string
    date_apparition : Date
    code_classification :int
    editeur: string
    genre: string
}

class Livre {
    ISBN : string {key}
    resume : string
    langue : string
}
class Musique {
    longueur : int
}

class Film {
    synopsis : string
    langue : string 
    longueur: string
}

Ressource <|-down- Livre
Ressource <|-down- Film
Ressource <|-down- Musique 




class Exemplaire {
  id : integer
    etat : enum 
}

Ressource *- - "1..n" Exemplaire

abstract class Utilisateur {
  nom : string
  prenom : string
  num_adresse: integer
  rue: string
  code_postale : integer
  ville: string
  mail : string
}



class Adherent{
    date de naissance : Date
    num_tel : int
    statut_adhesion : adhesion
}
class Sanction{
    motif : motif_sanction
    date_debut : Date
    date_fin : Date
    
    
}

Utilisateur <|-left personnel
Utilisateur *- - "1" Compte
Utilisateur <|- Adherent

Sanction "*" - - "1" Adherent : est_sanctionne
class Compte {
    login : string
    password : string
}

class Contributeur {
    nom : string
    prenom : string
    date_naissance : Date
    nationalite : string
}



Contributeur "1.n" - -up- "*" Livre : a écrit >
Contributeur "1.n" - -up- "*" Musique : a composé >
Contributeur "1.n" - -up- "*" Musique : a interprété >
Contributeur "1.n" - -up- "*" Film : a réalisé >
Contributeur "1.n" - -up- "*" Film : a joué >

class Prêt {
date_debut : Date
date_fin : Date
rendu : Booleen

}


(Exemplaire, Adherent) . Prêt

enum Adhesion <<enum>>{
    active
    expiree
    suspendue
    blacklistee
}

enum Motif_sanction <<enum>>{
    retard
    deterioration
    perte
}

enum type_etat <<enum>> {
    Neuf
    Bon
    Abime
    Perdu
}
@enduml

PlantUML version 1.2022.10beta1(Unknown compile time)
(GPL source distribution)
Java Runtime: Java(TM) SE Runtime Environment
JVM: Java HotSpot(TM) 64-Bit Server VM
Default Encoding: UTF-8
Language: en
Country: US
--></g></svg>